<?xml version="1.0" encoding="utf-8"?>
<!-- Generator: Adobe Illustrator 21.0.0, SVG Export Plug-In . SVG Version: 6.00 Build 0)  -->
<svg version="1.1" id="Layer_1" xmlns="http://www.w3.org/2000/svg" xmlns:xlink="http://www.w3.org/1999/xlink" x="0px" y="0px"
	 viewBox="0 0 625 180" style="enable-background:new 0 0 625 180;" xml:space="preserve">
<style type="text/css">
	.st0{fill:#43471D;}
	.st1{fill:#8B9238;}
	.st2{fill:#D6DE23;}
	.st3{fill:#7AC043;}
	.st4{fill:url(#SVGID_1_);}
</style>
<g>
	<g id="II_Icon_3_">
		<g>
			<path class="st0" d="M104.9,158.7c0,6.4,0.8,6.9,10,7.4v4.5H76.5v-4.5c9.1-0.5,10-1,10-7.4v-61c0-6.4-0.8-7-10-7.4v-4.4h38.4v4.4
				c-9.2,0.4-10,0.9-10,7.4V158.7z"/>
			<path class="st0" d="M128.4,123.8c0-4.8-0.9-5.8-3.1-6.1l-4.4-0.7v-4.1l23.5-3.5l0.9,0.8V160c0,5.3,0.9,5.7,8.2,6.2v4.4h-33.2
				v-4.4c7.4-0.5,8.2-0.9,8.2-6.2V123.8z M146.1,93c0,5.3-3.6,9.6-9.6,9.6c-6.1,0-9.6-4.3-9.6-9.6c0-5.2,3.5-9.6,9.7-9.6
				C142.6,83.4,146.1,87.8,146.1,93z"/>
		</g>
		<path class="st1" d="M121.5,14.8c3.7,9.5-2.8,20.9-2.8,20.9s-12.5-4-16.2-13.6c-3.7-9.5,2.8-20.9,2.8-20.9S117.8,5.3,121.5,14.8z"
			/>
		<path class="st2" d="M105.8,34.9c6.6,2.8,9.2,11.6,9.2,11.6s-8.1,4.4-14.8,1.6c-6.6-2.8-9.2-11.6-9.2-11.6S99.2,32.1,105.8,34.9z"
			/>
		<path class="st3" d="M89.7,57.7c1.9,10.5-6.9,20.8-6.9,20.8s-12-6.6-13.9-17c-1.9-10.5,6.9-20.8,6.9-20.8S87.8,47.2,89.7,57.7z"/>
		<path class="st3" d="M64.4,60c-0.4,6.8-7.4,12-7.4,12s-6.5-5.9-6.2-12.7c0.4-6.8,7.5-12,7.5-12S64.7,53.1,64.4,60z"/>
		<path class="st1" d="M46.1,37.3c4.4,10.3-2.3,23.1-2.3,23.1s-13.9-4-18.3-14.3C21.1,35.7,27.8,23,27.8,23S41.6,27,46.1,37.3z"/>
		<path class="st2" d="M21.2,57.5c7.6,3.5,10.2,13.9,10.2,13.9s-9.6,4.7-17.2,1.1C6.6,69,4,58.6,4,58.6S13.6,53.9,21.2,57.5z"/>
		<path class="st2" d="M211.1,56c-6.9,4.7-17.2,1.7-17.2,1.7s0.9-10.7,7.7-15.4c6.9-4.7,17.2-1.7,17.2-1.7S218,51.3,211.1,56z"/>
		<path class="st3" d="M191.7,79.1c-6.5-0.3-11.5-7.1-11.5-7.1s5.6-6.2,12.1-5.9c6.5,0.3,11.5,7.1,11.5,7.1S198.3,79.4,191.7,79.1z"
			/>
		<path class="st1" d="M148.4,47.2c3.1,7.8-2.2,17.1-2.2,17.1s-10.2-3.2-13.3-11c-3.1-7.8,2.2-17.1,2.2-17.1S145.3,39.4,148.4,47.2z
			"/>
		<path class="st2" d="M169.5,48.3c1.9,8.1-4.6,16.6-4.6,16.6s-9.7-4.7-11.6-12.8c-1.9-8.1,4.6-16.6,4.6-16.6S167.6,40.2,169.5,48.3
			z"/>
		<path class="st3" d="M194,45.2c-3,9.6-15,14.3-15,14.3s-7.1-10.8-4-20.4c3-9.6,15-14.3,15-14.3S197.1,35.6,194,45.2z"/>
		<linearGradient id="SVGID_1_" gradientUnits="userSpaceOnUse" x1="73.6528" y1="103.0187" x2="137.704" y2="26.6854">
			<stop  offset="0.25" style="stop-color:#43471D"/>
			<stop  offset="0.2589" style="stop-color:#474627"/>
			<stop  offset="0.2948" style="stop-color:#574348"/>
			<stop  offset="0.3333" style="stop-color:#644064"/>
			<stop  offset="0.3745" style="stop-color:#6E3E7A"/>
			<stop  offset="0.42" style="stop-color:#753C89"/>
			<stop  offset="0.4727" style="stop-color:#793B92"/>
			<stop  offset="0.55" style="stop-color:#7A3B95"/>
			<stop  offset="0.8" style="stop-color:#EB5C24"/>
		</linearGradient>
		<path class="st4" d="M86.4,95.4c0.3-6.6-13.2-16.5-26.2-14.4c-15.6,2.5-25.4-8.8-26.4-20.1c2.7,8.8,12.1,18.9,27.3,16.5
			c11.7-1.8,24.6,3.7,28.1,11.6c0.4-13.3,2.2-24.1,18.9-30.6c16.7-6.5,19.4-22.7,19.4-32.5c2.6,11.8-1.7,30.7-12.3,35.6
			c19.8-2.2,23.5,6.6,36,9.3c12.5,2.7,22.1,1,29.4-8.1c-3.4,10.5-16.2,20.6-35.3,12.8c-17.4-7.1-27.1-11.1-38.4-5.6
			c-7.3,3.6-11,12.2-11.9,27.9L86.4,95.4z"/>
	</g>
	<g>
		<path class="st0" d="M181.9,106.9h2.4v21.9h-2.4V106.9z"/>
		<path class="st0" d="M195.9,113.6c-0.6-0.7-1.5-2-1.5-2s0.2,1.6,0.2,2.5v14.8h-2.2v-22.2h0.4l13.1,15.5c0.6,0.7,1.5,2,1.5,2
			s-0.2-1.5-0.2-2.5v-14.8h2.2v22.2H209L195.9,113.6z"/>
		<path class="st0" d="M222.1,109h-6.7v-2.1h15.8v2.1h-6.7v19.9h-2.3V109z"/>
		<path class="st0" d="M237.2,106.9h13.4v2.1h-11v10.3h9.8v2h-9.8v5.5H251v2.1h-13.8V106.9z"/>
		<path class="st0" d="M272.1,128.8h-2.7l-4.2-6c-0.7,0.1-1.5,0.2-2.3,0.2h-2.6v5.8h-2.3v-21.9h4.9c6,0,9.1,3.4,9.1,8.1
			c0,3.3-1.5,5.9-4.6,7.1L272.1,128.8z M262.6,121c5,0,6.8-2.6,6.8-6c0-3.5-1.9-6-6.8-6h-2.5v12H262.6z"/>
		<path class="st0" d="M282.5,113.6c-0.6-0.7-1.5-2-1.5-2s0.2,1.6,0.2,2.5v14.8H279v-22.2h0.4l13.1,15.5c0.6,0.7,1.5,2,1.5,2
			s-0.2-1.5-0.2-2.5v-14.8h2.2v22.2h-0.4L282.5,113.6z"/>
		<path class="st0" d="M311.2,106.7h0.4l9.3,22.2h-2.5l-1.5-3.7h-11.1l-1.5,3.7h-2.3L311.2,106.7z M316.1,123.2l-3.9-9.7
			c-0.4-1-0.8-2.6-0.8-2.6s-0.5,1.6-0.9,2.6l-3.9,9.7H316.1z"/>
		<path class="st0" d="M329.3,109h-6.7v-2.1h15.8v2.1h-6.7v19.9h-2.3V109z"/>
		<path class="st0" d="M344.4,106.9h2.4v21.9h-2.4V106.9z"/>
		<path class="st0" d="M353.6,117.9c0-6.6,5-11.2,11.3-11.2c6.3,0,11.3,4.6,11.3,11.2c0,6.6-5,11.2-11.3,11.2
			C358.6,129.1,353.6,124.5,353.6,117.9z M373.7,117.9c0-5.2-3.7-9.1-8.9-9.1c-5.1,0-8.8,3.9-8.8,9.1c0,5.2,3.7,9.1,8.8,9.1
			C370,127,373.7,123.1,373.7,117.9z"/>
		<path class="st0" d="M386.3,113.6c-0.6-0.7-1.5-2-1.5-2s0.2,1.6,0.2,2.5v14.8h-2.2v-22.2h0.4l13.1,15.5c0.6,0.7,1.5,2,1.5,2
			s-0.2-1.5-0.2-2.5v-14.8h2.2v22.2h-0.4L386.3,113.6z"/>
		<path class="st0" d="M415.1,106.7h0.4l9.3,22.2h-2.5l-1.5-3.7h-11.1l-1.5,3.7H406L415.1,106.7z M420,123.2l-3.9-9.7
			c-0.4-1-0.8-2.6-0.8-2.6s-0.5,1.6-0.9,2.6l-3.9,9.7H420z"/>
		<path class="st0" d="M430.9,106.9h2.3v19.9h10.4v2.1h-12.7V106.9z"/>
		<path class="st0" d="M458.3,106.9h2.4v21.9h-2.4V106.9z"/>
		<path class="st0" d="M472.2,113.6c-0.6-0.7-1.5-2-1.5-2s0.2,1.6,0.2,2.5v14.8h-2.2v-22.2h0.4l13.1,15.5c0.6,0.7,1.5,2,1.5,2
			s-0.2-1.5-0.2-2.5v-14.8h2.2v22.2h-0.4L472.2,113.6z"/>
		<path class="st0" d="M491.6,124.6l1.9-1c1,1.8,2.5,3.4,5.6,3.4c2.5,0,4.6-1.4,4.6-3.7c0-2.2-1.4-3.4-4.1-4.6l-1.7-0.8
			c-3.1-1.4-4.8-2.9-4.8-6c0-3.2,2.5-5.3,5.8-5.3c2.9,0,4.8,1.4,5.9,3.3l-1.9,1.2c-0.8-1.4-2-2.4-4.1-2.4c-2.2,0-3.5,1.3-3.5,3.1
			c0,1.9,1,2.8,3.5,3.9l1.7,0.8c3.6,1.6,5.5,3.4,5.5,6.7c0,3.6-2.9,5.8-6.8,5.8C495,129.1,492.8,127,491.6,124.6z"/>
		<path class="st0" d="M517.1,109h-6.7v-2.1h15.8v2.1h-6.7v19.9h-2.3V109z"/>
		<path class="st0" d="M532.2,106.9h2.4v21.9h-2.4V106.9z"/>
		<path class="st0" d="M547.4,109h-6.7v-2.1h15.8v2.1h-6.7v19.9h-2.3V109z"/>
		<path class="st0" d="M562.3,121.4v-14.5h2.3v14.3c0,3.9,2.1,5.8,5.6,5.8c3.4,0,5.6-1.9,5.6-5.8v-14.3h2.3v14.5
			c0,5.1-3.4,7.7-7.9,7.7C565.7,129.1,562.3,126.5,562.3,121.4z"/>
		<path class="st0" d="M590.6,109h-6.7v-2.1h15.8v2.1h-6.7v19.9h-2.3V109z"/>
		<path class="st0" d="M605.7,106.9H619v2.1h-11v10.3h9.8v2H608v5.5h11.5v2.1h-13.8V106.9z"/>
	</g>
	<g>
		<path class="st0" d="M319.7,155.4c-0.8,1.9-2.7,3-4.3,3c-1.6,0-2.7-0.8-3.3-1.8H312c-1.2,4.2-6.4,10.3-11.6,10.3
			c-2.4,0-3.7-1.6-3.7-3.9c0-3.8,5.9-11.3,11.8-11.3c2.3,0,3.6,1.5,3.7,3.6c0.1,1.3,1.3,2.6,3.2,2.6c1.7,0,3.2-1,4-2.7L319.7,155.4z
			 M300.7,166.4c4.5,0,9.3-7.9,9.3-12c0-1.2-0.6-2.1-1.8-2.1c-3.5,0-9.1,7.3-9.1,11.8C299,165.5,299.6,166.4,300.7,166.4z"/>
		<path class="st0" d="M317.9,152.6v-0.5h3.2c4.3-7,9.2-14.8,15.3-14.8c1.8,0,3,0.8,3,2.3c0,1.3-0.9,2.3-2.2,2.4
			c0.2-0.8,0.4-1.4,0.4-2.4c0-1.1-0.5-1.9-1.8-1.9c-4.2,0-8.7,8.5-12.3,14.3h9.5v0.5h-9.8c-10.8,18.4-16.3,26-25.8,26
			c-3.3,0-6.4-1.7-6.4-5c0-2.2,1.3-4,4.5-4h0.4v0.3c-1.7,0.1-3,1.3-3,3.4c0,2.9,1.7,4.8,4.8,4.8c9.1,0,15.3-13.2,23.2-25.5H317.9z"
			/>
		<path class="st0" d="M382,155.5c-4.4,7.3-10.1,11.1-17.7,11.1c-2.4,0-2.9,0.3-3.6,0.3c-0.5,0-0.9-0.1-0.9-0.5
			c0-0.5,0.7-0.5,0.9-0.5c0.8,0,1.5,0.2,2.3,0.3c10.2-4.9,9.7-24.4,20.7-28.9l-0.1-0.1c-4.9,0.8-11.1,7.4-16,14.2
			c-3.9,5.4-7.7,11.3-13.4,15.5l-0.3-0.4c5.8-9.3,4.1-23.1,15.4-28.9l-0.1-0.1c-7.4,2.5-12.2,9.7-16.3,16.4c-4.1,6.8-7.4,13-13,13
			c-1.4,0-3-0.4-3-2.2c0-0.8,0.6-1.5,1.5-1.5c0.7,0,1.2,0.7,1.2,1.4c0,0.4-0.2,1.1-0.6,1.2c0,0.3,0.8,0.6,1.4,0.6
			c4.9,0,8.4-6.7,12.8-13.7c5.1-8.2,9.9-14.6,19-16.3l0,0.4c-10.3,3.2-9.4,18.8-16.2,28l0.1,0.1c4.2-3.6,8.5-10.2,11.8-14.7
			c8.7-12,14.5-14,18.8-14c0.8,0,1.8,0.3,1.8,0.8c0,0.5-0.4,0.5-0.8,0.5c-0.8,0-1.7-0.3-2.5-0.3c-3.8,0-8.5,11.3-9.8,14.5
			c-1.9,4.8-4.3,11.3-11.5,14.4v0.1c8.5,0,13.6-4,17.9-10.8L382,155.5z"/>
		<path class="st0" d="M386.6,152.1c-6.1,8.9-8.4,11.7-8.4,13.2c0,0.7,0.3,1.1,0.9,1.1c3.4,0,10.5-8,12.1-10.9l0.3,0.2
			c-2,3.4-8.7,11.2-12.8,11.2c-1.5,0-2.2-1-2.2-2c0-2.4,2.1-4.8,7.4-12.8H386.6z M390.4,145.6c0,0.8-0.5,1.4-1.3,1.4
			c-0.8,0-1.3-0.6-1.3-1.4c0-0.8,0.6-1.4,1.3-1.4C389.8,144.3,390.4,144.9,390.4,145.6z"/>
		<path class="st0" d="M395.4,152.1l-5.6,7.7l0.1,0.1c2.4-2.8,6.4-8.1,10.3-8.1c1.7,0,2.6,1.1,2.6,2.5c0,2.7-6.5,8.8-6.5,11
			c0,0.8,0.4,1.2,1.2,1.2c1.8,0,3.7-1.1,6.5-4c2.2-2.2,4.9-5.6,5.8-7.2l0.3,0.2c-1.1,1.7-3,4.2-5,6.4c-2.5,2.7-5.2,5-7.6,5
			c-1.6,0-2.8-1-2.8-2.5c0-3.3,6.5-8.3,6.5-11.1c0-0.7-0.5-1-1.2-1c-4.2,0-11.9,10.4-13.8,14.3h-2.6c2.9-4.9,6.8-10.5,9.1-14.3
			L395.4,152.1z"/>
		<path class="st0" d="M414.1,152.1l-5.6,7.7l0.1,0.1c2.4-2.8,6.4-8.1,10.3-8.1c1.7,0,2.6,1.1,2.6,2.5c0,2.7-6.5,8.8-6.5,11
			c0,0.8,0.4,1.2,1.2,1.2c1.8,0,3.7-1.1,6.5-4c2.2-2.2,2.4-3,3.6-4.4l0.3,0.2c-1.3,1.5-0.7,1.4-2.7,3.6c-2.5,2.7-5.2,5-7.6,5
			c-1.6,0-2.8-1-2.8-2.5c0-3.3,6.5-8.3,6.5-11.1c0-0.7-0.5-1-1.2-1c-4.2,0-11.9,10.4-13.8,14.3h-2.6c2.9-4.9,6.8-10.5,9.1-14.3
			L414.1,152.1z"/>
		<path class="st0" d="M436.9,162.6c-2.8,2.4-6.1,4.2-9,4.2c-2.4,0-3.7-1.3-3.7-3.5c0-4.9,6.7-11.6,11.7-11.6c1.4,0,2.2,0.6,2.2,1.7
			c0,2.6-6.6,5.2-10.3,6c-0.6,1.1-1.1,2.6-1.1,4c0,1.3,0.5,2.8,2.1,2.8c2.1,0,5.1-1.6,7.9-4L436.9,162.6z M435,152.2
			c-2.3,0-5.9,4.2-7,6.7c2.5-0.4,8.1-2.7,8.1-5.6C436.1,152.7,435.7,152.2,435,152.2z"/>
		<path class="st0" d="M475,155.5c-1.1,1.7-2.8,2.9-4.3,2.9c-1.6,0-2.7-0.8-3.3-1.8h-0.1c-1.2,4.2-6.4,10.3-11.6,10.3
			c-2.4,0-3.7-1.6-3.7-3.9c0-3.8,5.9-11.3,11.8-11.3c2.3,0,3.6,1.5,3.7,3.6c0.1,1.3,1.3,2.6,3.2,2.6c1.7,0,3-1.1,4-2.6L475,155.5z
			 M456,166.4c4.5,0,9.3-7.9,9.3-12c0-1.2-0.6-2.1-1.8-2.1c-3.5,0-9.1,7.3-9.1,11.8C454.3,165.5,454.9,166.4,456,166.4z"/>
		<path class="st0" d="M498.2,152.1h2.7c-4.1,5.8-8,11.2-8,13.2c0,0.8,0.4,1.1,1.1,1.1c2.4,0,7.7-5,11.7-11.1l0.3,0.1
			c-3,4.6-8.5,11.5-12.4,11.5c-1.6,0-2.4-0.9-2.4-2.1c0-0.8,0.3-1.6,0.6-2.3l-0.1,0c-1.5,1.6-4.6,4.4-7,4.4c-2.1,0-2.8-1.5-2.8-3.2
			c0-4.6,6.6-12,11.3-12c2.3,0,3.2,1.4,3.5,2.8h0.1L498.2,152.1z M485.9,165.9c2.8,0,9.4-6.7,9.4-11.7c0-1.3-0.8-2-1.9-2
			c-3.3,0-9,6.6-9,11.6C484.4,165.1,485,165.9,485.9,165.9z"/>
		<path class="st0" d="M454.4,158c-3.2,4.6-7.4,8.9-13.5,8.9c-2.6,0-4.9-1.3-4.9-4.1c0-1.5,1.1-2.9,2.7-2.9c0.8,0,1.4,0.4,1.4,1.3
			c0,0.8-0.4,1.4-1.2,1.4c-0.6,0-1-0.4-1.1-0.9c-0.6,0.3-0.8,1.1-0.8,1.7c0,2,1.8,2.9,3.6,2.9c2.4,0,3.5-2.1,3.5-4.1
			c0-1.1-0.4-2.2-0.9-3.4c-0.5-1.1-0.9-2.2-0.9-3.2c0-2.5,2.2-4,4.7-4c2.2,0,3.8,1.1,3.8,2.7c0,1.4-1.3,2.1-2.7,2.1
			c0.3-0.6,0.6-1.6,0.6-2.3c0-1.1-0.7-2-2-2c-1.6,0-2.4,1.1-2.4,2.5c0,1.2,0.5,2.3,1.1,3.4c0.5,1.1,1,2.3,1,3.7
			c0,2.1-2.1,4.1-4.1,4.5l0.1,0.1c5.1-0.6,8.9-4.6,11.8-8.7L454.4,158z"/>
		<path class="st0" d="M482.6,147.2l-3.3,4.9h5.6l-0.3,0.5H479c-4.5,7.3-7.1,10.3-7.1,12.4c0,1.1,0.8,1.4,1.8,1.4
			c3.4,0,7.9-5.1,11-9.2l0.2,0.2c-3.5,4.5-7.7,9.5-11.5,9.5c-1.7,0-3.2-1.1-3.2-3c0-2.6,3.2-6.3,6.3-11.3h-2.3l0.3-0.5h2.4l3.3-4.9
			H482.6z"/>
	</g>
</g>
</svg>
